<svg width="39" height="38" viewBox="0 0 39 38" fill="none" xmlns="http://www.w3.org/2000/svg">
<path d="M2 12.7004C2 9.95378 4.1351 2 10.895 2C16.9017 2 17.676 9.3987 17.676 11.0773C17.676 15.1181 15.2156 20.1937 15.2156 22.6491C15.395 25.6771 15.8829 28.6882 16.6745 31.6517C16.7987 32.182 16.7762 32.7279 16.6087 33.2504C16.4413 33.773 16.1329 34.2592 15.7056 34.6745C15.2783 35.0899 14.7426 35.424 14.1368 35.6531C13.531 35.8822 12.8699 36.0007 12.2008 36C11.1449 35.9777 10.1291 35.6692 9.31717 35.1242C8.50523 34.5793 7.94449 33.8296 7.72537 32.9962C3.3727 19.2602 2 16.3317 2 12.7004Z" stroke="#F0F5FF" stroke-width="2.5" stroke-linecap="round" stroke-linejoin="round"/>
<path d="M17.6751 11.0773C17.8913 16.0664 12.155 16.2933 12.155 20.8929C12.155 24.913 15.529 26.3159 16.6744 31.6517M37 12.7004C37 9.95378 34.8649 2 28.105 2C22.0974 2 21.324 9.3987 21.324 11.0773C21.324 15.1181 23.7844 20.1937 23.7844 22.6491C23.6051 25.6771 23.1171 28.6882 22.3256 31.6517C22.2014 32.182 22.2238 32.7278 22.3912 33.2503C22.5587 33.7727 22.867 34.259 23.2942 34.6743C23.7213 35.0896 24.2569 35.4237 24.8626 35.6529C25.4683 35.882 26.1292 36.0006 26.7983 36C27.8542 35.9777 28.87 35.6692 29.6819 35.1242C30.4939 34.5793 31.0546 33.8296 31.2737 32.9962C35.6273 19.2602 37 16.331 37 12.7004Z" stroke="#F0F5FF" stroke-width="2.5" stroke-linecap="round" stroke-linejoin="round"/>
<path d="M21.3241 11.0771C21.1097 16.0663 26.8451 16.2932 26.8451 20.8928C26.8451 24.9129 23.4702 26.3158 22.3257 31.6516" stroke="#F0F5FF" stroke-width="2.5" stroke-linecap="round" stroke-linejoin="round"/>
</svg>
