<svg width="29" height="29" viewBox="0 0 29 29" fill="none" xmlns="http://www.w3.org/2000/svg">
<path fill-rule="evenodd" clip-rule="evenodd" d="M7.83334 3C6.55146 3 5.32208 3.50923 4.41565 4.41565C3.50923 5.32208 3 6.55146 3 7.83334V20.5C3 21.7819 3.50923 23.0113 4.41565 23.9177C5.32208 24.8241 6.55146 25.3333 7.83334 25.3333H20.5C21.7818 25.3333 23.0112 24.8241 23.9176 23.9177C24.8241 23.0113 25.3333 21.7819 25.3333 20.5V7.83334C25.3333 6.55146 24.8241 5.32208 23.9176 4.41565C23.0112 3.50923 21.7818 3 20.5 3H7.83334ZM2.29433 2.29433C3.76337 0.825297 5.75581 0 7.83334 0H20.5C22.5775 0 24.5699 0.825297 26.039 2.29433C27.508 3.76337 28.3333 5.75581 28.3333 7.83334V20.5C28.3333 22.5775 27.508 24.57 26.039 26.039C24.5699 27.5081 22.5775 28.3333 20.5 28.3333H7.83334C5.75581 28.3333 3.76337 27.5081 2.29433 26.039C0.825298 24.57 0 22.5775 0 20.5V7.83334C0 5.75581 0.825298 3.76337 2.29433 2.29433ZM9.74735 9.74729C10.9194 8.57517 12.5091 7.91669 14.1667 7.91669C15.8243 7.91669 17.414 8.57517 18.5861 9.74729C19.7582 10.9194 20.4167 12.5091 20.4167 14.1667C20.4167 15.8243 19.7582 17.414 18.5861 18.5861C17.414 19.7582 15.8243 20.4167 14.1667 20.4167C12.5091 20.4167 10.9194 19.7582 9.74735 18.5861C8.57523 17.414 7.91675 15.8243 7.91675 14.1667C7.91675 12.5091 8.57523 10.9194 9.74735 9.74729ZM14.1667 10.9167C13.3047 10.9167 12.4781 11.2591 11.8686 11.8686C11.2591 12.4781 10.9167 13.3047 10.9167 14.1667C10.9167 15.0287 11.2591 15.8553 11.8686 16.4648C12.4781 17.0743 13.3047 17.4167 14.1667 17.4167C15.0287 17.4167 15.8553 17.0743 16.4648 16.4648C17.0743 15.8553 17.4167 15.0287 17.4167 14.1667C17.4167 13.3047 17.0743 12.4781 16.4648 11.8686C15.8553 11.2591 15.0287 10.9167 14.1667 10.9167ZM22.2917 7.04169C22.2917 6.48941 21.844 6.04169 21.2917 6.04169C20.7394 6.04169 20.2917 6.48941 20.2917 7.04169V7.05669C20.2917 7.60898 20.7394 8.05669 21.2917 8.05669C21.844 8.05669 22.2917 7.60898 22.2917 7.05669V7.04169Z" fill="#F0F5FF"/>
</svg>
