<svg width="18" height="21" viewBox="0 0 18 21" fill="none" xmlns="http://www.w3.org/2000/svg">
<path d="M15.364 2.63599C17.0163 4.28813 17.9613 6.51811 17.9992 8.85441C18.0371 11.1907 17.1649 13.4502 15.567 15.155L15.364 15.365L11.121 19.607C10.5826 20.145 9.85987 20.4583 9.09915 20.4834C8.33843 20.5084 7.59662 20.2434 7.02399 19.742L6.87999 19.607L2.63599 15.364C0.948156 13.6762 -6.10352e-05 11.387 -6.10352e-05 8.99999C-6.10352e-05 6.61303 0.948156 4.32383 2.63599 2.63599C4.32383 0.948156 6.61303 -6.10352e-05 8.99999 -6.10352e-05C11.387 -6.10352e-05 13.6762 0.948156 15.364 2.63599ZM8.99999 5.99999C8.60603 5.99999 8.21592 6.07759 7.85194 6.22836C7.48797 6.37912 7.15725 6.6001 6.87867 6.87867C6.6001 7.15725 6.37912 7.48797 6.22836 7.85194C6.07759 8.21592 5.99999 8.60603 5.99999 8.99999C5.99999 9.39396 6.07759 9.78407 6.22836 10.148C6.37912 10.512 6.6001 10.8427 6.87867 11.1213C7.15725 11.3999 7.48797 11.6209 7.85194 11.7716C8.21592 11.9224 8.60603 12 8.99999 12C9.79564 12 10.5587 11.6839 11.1213 11.1213C11.6839 10.5587 12 9.79564 12 8.99999C12 8.20434 11.6839 7.44128 11.1213 6.87867C10.5587 6.31606 9.79564 5.99999 8.99999 5.99999Z" fill="#6B7C9E"/>
</svg>
