<svg width="261" height="60" viewBox="0 0 261 60" fill="none" xmlns="http://www.w3.org/2000/svg">
<g clip-path="url(#clip0_338_6)">
<path d="M15.4955 53.3098C14.3656 54.3458 12.8952 54.8017 11.3588 54.6089C10.576 54.5283 9.8375 54.242 9.15842 53.7917C8.4718 53.3488 7.83233 52.7529 7.30133 52.033C8.58403 51.1861 10.162 50.9803 11.6097 51.2333C12.3407 51.3575 13.0188 51.6206 13.6715 51.9681C14.3505 52.2952 14.9683 52.7381 15.4955 53.3098Z" fill="#28BBA5"/>
<path d="M17.0743 51.872C18.2042 50.836 18.8446 49.4776 19.0389 48.2119C19.1172 47.5901 19.1379 46.9424 19.0483 46.3327C18.9512 45.7286 18.7286 45.1726 18.356 44.6834C17.0733 45.5303 16.2283 46.7154 15.9661 48.047C15.8387 48.7058 15.8312 49.4146 16.0123 50.0744C16.2198 50.7128 16.5772 51.3309 17.0743 51.872Z" fill="#28BBA5"/>
<path d="M11.1767 47.7699C9.86759 48.5761 8.34061 48.7456 6.87587 48.261C5.36398 47.8135 4.16804 46.5792 3.39276 44.966C4.81694 44.3767 6.4024 44.474 7.7681 44.9984C8.46982 45.2542 9.04421 45.6591 9.66292 46.1002C10.2618 46.5514 10.7768 47.1046 11.1767 47.7699Z" fill="#28BBA5"/>
<path d="M13.0055 46.6528C14.3146 45.8467 15.2125 44.63 15.6586 43.4217C16.0472 42.231 16.2274 40.9245 15.6775 39.8358C14.2533 40.4251 13.1894 41.4304 12.666 42.6906C12.4207 43.3087 12.2349 44.0231 12.3293 44.6819C12.4038 45.3491 12.6292 46.0264 13.0055 46.6528Z" fill="#28BBA5"/>
<path d="M8.01801 41.5167C6.57591 42.0606 5.04609 41.9392 3.70774 41.1868C2.31846 40.4594 1.36398 39.0334 0.932007 37.3025C2.44484 36.9912 3.98032 37.384 5.21586 38.155C6.40236 38.9509 7.50304 40.0629 8.01801 41.5167Z" fill="#28BBA5"/>
<path d="M10.0308 40.7651C11.4729 40.2212 12.5933 39.1945 13.2715 38.0909C13.893 36.9929 14.3014 35.7485 13.9883 34.5707C12.4754 34.8821 11.2342 35.6706 10.4731 36.8103C9.65726 37.9547 9.54408 39.3854 10.0308 40.7651Z" fill="#28BBA5"/>
<path d="M6.13824 34.7846C4.61692 35.0487 3.13992 34.6428 1.97322 33.6551C0.754655 32.6821 0.0859502 31.106 0.00012207 29.3269C1.54597 29.3028 2.97675 29.9746 4.0397 30.9614C5.05077 31.964 5.92037 33.2603 6.13824 34.7846Z" fill="#28BBA5"/>
<path d="M8.26044 34.4235C9.78176 34.1594 11.0814 33.3616 11.9624 32.4035C12.7886 31.4398 13.4214 30.2936 13.346 29.077C11.8001 29.1011 10.4288 29.644 9.46109 30.6216C8.4387 31.5936 8.05483 32.977 8.26044 34.4235Z" fill="#28BBA5"/>
<path d="M5.59677 27.8252C4.05187 27.8011 2.68051 27.1274 1.72602 25.9414C0.716836 24.76 0.362206 23.0874 0.623463 21.3241C2.14573 21.5882 3.42089 22.5139 4.27445 23.6814C5.07237 24.8536 5.67789 26.2879 5.59677 27.8252Z" fill="#28BBA5"/>
<path d="M7.74902 27.8662C9.29393 27.8903 10.7247 27.3492 11.7745 26.5717C12.7714 25.7786 13.6127 24.7723 13.7749 23.564C12.2526 23.2999 10.8011 23.5779 9.66176 24.3571C8.47055 25.1207 7.82919 26.4077 7.74902 27.8662Z" fill="#28BBA5"/>
<path d="M6.40718 20.8917C4.89434 20.5804 3.67955 19.6639 2.97217 18.3194C2.21104 16.9712 2.1818 15.2588 2.78637 13.5761C4.22941 14.121 5.2999 15.269 5.91013 16.5737C6.46377 17.8737 6.78916 19.398 6.40718 20.8917Z" fill="#28BBA5"/>
<path d="M8.51306 21.3312C10.0259 21.6425 11.535 21.3775 12.7167 20.8113C13.8495 20.2192 14.8653 19.389 15.2633 18.2372C13.8203 17.6924 12.3404 17.6924 11.07 18.2437C9.74861 18.7691 8.87712 19.9162 8.51306 21.3312Z" fill="#28BBA5"/>
<path d="M8.54421 14.2331C7.12003 13.6437 6.10707 12.5161 5.67699 11.0641C5.47893 10.3496 5.35065 9.52219 5.51288 8.74013C5.6553 7.94881 5.959 7.13803 6.42303 6.37265C7.73309 7.1788 8.55742 8.50662 8.8979 9.90024C9.18085 11.2772 9.22329 12.8459 8.54421 14.2331Z" fill="#28BBA5"/>
<path d="M10.5259 15.0602C11.9501 15.6495 13.4846 15.6736 14.7569 15.3419C15.4115 15.1825 15.9283 14.8897 16.4791 14.5728C17.0101 14.2448 17.4468 13.8259 17.76 13.2987C16.4499 12.4925 14.9955 12.2118 13.6374 12.5111C12.2302 12.7742 11.1719 13.7462 10.5259 15.0602Z" fill="#28BBA5"/>
<path d="M11.9369 8.09671C10.6542 7.2498 9.88267 5.95532 9.74874 4.45422C9.68554 3.71109 9.75628 2.90123 10.027 2.134C10.3231 1.38994 10.7824 0.656991 11.3898 -0.000900269C12.5198 1.03505 13.0696 2.48704 13.1262 3.91216C13.1356 4.61267 13.0762 5.35766 12.8999 6.07856C12.7169 6.79298 12.4019 7.47403 11.9369 8.09671Z" fill="#28BBA5"/>
<path d="M13.7206 9.28231C15.0033 10.1292 16.5076 10.4443 17.8271 10.3609C18.4939 10.321 19.0928 10.1589 19.6559 9.91796C20.2473 9.69836 20.7632 9.37034 21.1801 8.91445C20.0502 7.8785 18.6703 7.32902 17.2716 7.36238C16.5567 7.36331 15.9002 7.55326 15.307 7.89147C14.7071 8.22505 14.1601 8.69669 13.7206 9.28231Z" fill="#28BBA5"/>
<path d="M67.8109 51.872C66.681 50.836 66.0405 49.4776 65.8462 48.2119C65.768 47.5901 65.7472 46.9424 65.8368 46.3327C65.934 45.7286 66.1565 45.1726 66.5291 44.6834C67.8118 45.5303 68.6569 46.7154 68.9191 48.047C69.0464 48.7058 69.054 49.4146 68.8729 50.0744C68.6654 50.7128 68.3079 51.3309 67.8109 51.872Z" fill="#28BBA5"/>
<path d="M69.3898 53.3098C70.5197 54.3458 71.9901 54.8017 73.5266 54.6089C74.3094 54.5283 75.0479 54.242 75.727 53.7917C76.4136 53.3488 77.0531 52.7529 77.5841 52.033C76.3014 51.1861 74.7234 50.9803 73.2757 51.2333C72.5447 51.3575 71.8675 51.6206 71.2139 51.9681C70.5348 52.2952 69.9171 52.7381 69.3898 53.3098Z" fill="#28BBA5"/>
<path d="M71.8797 46.6528C70.5706 45.8467 69.6727 44.63 69.2266 43.4217C68.838 42.231 68.6578 40.9245 69.2077 39.8358C70.6319 40.4251 71.6958 41.4304 72.2192 42.6906C72.4645 43.3087 72.6503 44.0231 72.5559 44.6819C72.4814 45.3491 72.256 46.0264 71.8797 46.6528Z" fill="#28BBA5"/>
<path d="M73.7085 47.7699C75.0176 48.5761 76.5446 48.7456 78.0093 48.261C79.5212 47.8135 80.7172 46.5792 81.4924 44.966C80.0683 44.3767 78.4828 44.474 77.1171 44.9984C76.4154 45.2542 75.841 45.6591 75.2223 46.1002C74.6234 46.5514 74.1084 47.1046 73.7085 47.7699Z" fill="#28BBA5"/>
<path d="M74.8546 40.7651C73.4116 40.2212 72.2921 39.1945 71.6139 38.0909C70.9924 36.9929 70.584 35.7485 70.8971 34.5707C72.41 34.8821 73.6512 35.6706 74.4123 36.8103C75.2281 37.9547 75.3413 39.3854 74.8546 40.7651Z" fill="#28BBA5"/>
<path d="M76.8672 41.5167C78.3093 42.0606 79.8391 41.9392 81.1775 41.1868C82.5667 40.4594 83.5212 39.0334 83.9532 37.3025C82.4404 36.9912 80.9049 37.384 79.6693 38.155C78.4828 38.9509 77.3822 40.0629 76.8672 41.5167Z" fill="#28BBA5"/>
<path d="M76.6249 34.4235C75.1035 34.1594 73.8039 33.3616 72.9229 32.4035C72.0967 31.4398 71.4639 30.2936 71.5393 29.077C73.0852 29.1011 74.4565 29.644 75.4242 30.6216C76.4466 31.5936 76.8305 32.977 76.6249 34.4235Z" fill="#28BBA5"/>
<path d="M78.7468 34.7846C80.2682 35.0487 81.7452 34.6428 82.9118 33.6551C84.1304 32.6821 84.7991 31.106 84.8849 29.3269C83.3391 29.3028 81.9083 29.9746 80.8454 30.9614C79.8343 31.964 78.9647 33.2603 78.7468 34.7846Z" fill="#28BBA5"/>
<path d="M77.1361 27.8662C75.5912 27.8903 74.1604 27.3492 73.1107 26.5717C72.1138 25.7786 71.2725 24.7723 71.1102 23.564C72.6325 23.2999 74.084 23.5779 75.2234 24.3571C76.4146 25.1207 77.0559 26.4077 77.1361 27.8662Z" fill="#28BBA5"/>
<path d="M79.2883 27.8252C80.8332 27.8011 82.2046 27.1274 83.159 25.9414C84.1682 24.76 84.5229 23.0874 84.2616 21.3241C82.7393 21.5882 81.4642 22.5139 80.6106 23.6814C79.8127 24.8536 79.2072 26.2879 79.2883 27.8252Z" fill="#28BBA5"/>
<path d="M76.3718 21.3312C74.859 21.6425 73.3499 21.3775 72.1681 20.8113C71.0354 20.2192 70.0196 19.389 69.6216 18.2372C71.0646 17.6924 72.5444 17.6924 73.8149 18.2437C75.1363 18.7691 76.0077 19.9162 76.3718 21.3312Z" fill="#28BBA5"/>
<path d="M78.478 20.8917C79.9909 20.5804 81.2057 19.6639 81.913 18.3194C82.6742 16.9712 82.7034 15.2588 82.0989 13.5761C80.6558 14.121 79.5853 15.269 78.9751 16.5737C78.4215 17.8737 78.0961 19.398 78.478 20.8917Z" fill="#28BBA5"/>
<path d="M74.3594 15.0602C72.9353 15.6495 71.4007 15.6736 70.1284 15.3419C69.4738 15.1825 68.957 14.8897 68.4062 14.5728C67.8752 14.2448 67.4385 13.8259 67.1254 13.2987C68.4354 12.4925 69.8898 12.2118 71.2479 12.5111C72.6551 12.7742 73.7134 13.7462 74.3594 15.0602Z" fill="#28BBA5"/>
<path d="M76.3411 14.2331C77.7653 13.6437 78.7783 12.5161 79.2084 11.0641C79.4064 10.3496 79.5347 9.52219 79.3725 8.74013C79.2301 7.94881 78.9264 7.13803 78.4623 6.37265C77.1523 7.1788 76.3279 8.50662 75.9875 9.90024C75.7045 11.2772 75.6621 12.8459 76.3411 14.2331Z" fill="#28BBA5"/>
<path d="M71.1651 9.28231C69.8824 10.1292 68.3781 10.4443 67.0586 10.3609C66.3918 10.321 65.7929 10.1589 65.2298 9.91796C64.6384 9.69836 64.1225 9.37034 63.7056 8.91445C64.8355 7.8785 66.2154 7.32902 67.6141 7.36238C68.329 7.36331 68.9855 7.55326 69.5787 7.89147C70.1786 8.22505 70.7256 8.69669 71.1651 9.28231Z" fill="#28BBA5"/>
<path d="M72.9485 8.09671C74.2312 7.2498 75.0027 5.95532 75.1367 4.45422C75.1999 3.71109 75.1291 2.90123 74.8584 2.134C74.5623 1.38994 74.103 0.656991 73.4956 -0.000900269C72.3657 1.03505 71.8158 2.48704 71.7592 3.91216C71.7498 4.61267 71.8092 5.35766 71.9856 6.07856C72.1685 6.79298 72.4835 7.47403 72.9485 8.09671Z" fill="#28BBA5"/>
<path d="M34.6144 23.4523C32.8811 18.7306 37.6443 14.2461 42.29 16.2259L46.7498 18.1264C51.1114 19.985 52.7733 25.2824 50.2429 29.2612L46.9892 34.3775C46.6434 34.9213 46.4034 35.5251 46.2817 36.1576L45.1793 41.8884C44.5048 45.3941 40.98 47.5852 37.5105 46.6556C32.9201 45.4256 31.3629 39.7259 34.7018 36.375L36.5736 34.4965C37.5083 33.5585 37.8133 32.1665 37.3567 30.9228L34.6144 23.4523Z" fill="#28BBA5"/>
<path d="M31.3408 9.82193C31.3384 8.23748 32.6277 6.95501 34.2206 6.95746C35.8135 6.9599 37.1068 8.24633 37.1093 9.83078L37.1108 10.7871C37.1132 12.3715 35.8239 13.654 34.231 13.6516C32.638 13.6491 31.3447 12.3627 31.3423 10.7782L31.3408 9.82193Z" fill="#28BBA5"/>
<path d="M42.7438 9.70027C42.8531 9.29232 43.2745 9.05077 43.685 9.16075C44.0954 9.27074 44.3396 9.69061 44.2303 10.0986L44.1313 10.4679L44.0323 10.8372C43.923 11.2452 43.5017 11.4867 43.0912 11.3768C42.6807 11.2668 42.4366 10.8469 42.5459 10.4389L42.6449 10.0696L42.7438 9.70027Z" fill="#28BBA5"/>
<path d="M48.5554 12.0493C48.7673 11.6837 49.2374 11.5591 49.6056 11.7709C49.9738 11.9827 50.1006 12.4508 49.8888 12.8164L49.697 13.1474L49.5052 13.4783C49.2934 13.8439 48.8232 13.9686 48.455 13.7567C48.0868 13.5449 47.9601 13.0768 48.1719 12.7112L48.3637 12.3803L48.5554 12.0493Z" fill="#28BBA5"/>
<path d="M53.0589 15.5502C53.2708 15.1846 53.741 15.0599 54.1091 15.2718C54.4773 15.4836 54.6041 15.9517 54.3923 16.3173L54.2005 16.6482L54.0087 16.9792C53.7969 17.3448 53.3267 17.4694 52.9585 17.2576C52.5903 17.0458 52.4636 16.5777 52.6754 16.2121L52.8672 15.8811L53.0589 15.5502Z" fill="#28BBA5"/>
<path d="M56.3276 20.6927C56.6951 20.482 57.1657 20.6081 57.3787 20.9744C57.5916 21.3406 57.4663 21.8083 57.0988 22.019L56.766 22.2097L56.4333 22.4005C56.0657 22.6112 55.5951 22.4851 55.3822 22.1189C55.1692 21.7526 55.2945 21.2849 55.6621 21.0742L55.9948 20.8835L56.3276 20.6927Z" fill="#28BBA5"/>
<path d="M42.6449 10.0696L42.5459 10.4389C42.4366 10.8469 42.6807 11.2668 43.0912 11.3768C43.5017 11.4867 43.923 11.2452 44.0323 10.8372L44.1313 10.4679M42.6449 10.0696L42.7438 9.70027C42.8531 9.29232 43.2745 9.05077 43.685 9.16075C44.0954 9.27074 44.3396 9.69061 44.2303 10.0986L44.1313 10.4679M42.6449 10.0696L44.1313 10.4679M49.697 13.1474L49.8888 12.8164C50.1006 12.4508 49.9738 11.9827 49.6056 11.7709C49.2374 11.5591 48.7673 11.6837 48.5554 12.0493L48.3637 12.3803M49.697 13.1474L49.5052 13.4783C49.2934 13.8439 48.8232 13.9686 48.455 13.7567C48.0868 13.5449 47.9601 13.0768 48.1719 12.7112L48.3637 12.3803M49.697 13.1474L48.3637 12.3803M52.8672 15.8811L52.6754 16.2121C52.4636 16.5777 52.5903 17.0458 52.9585 17.2576C53.3267 17.4694 53.7969 17.3448 54.0087 16.9792L54.2005 16.6482M52.8672 15.8811L53.0589 15.5502C53.2708 15.1846 53.741 15.0599 54.1091 15.2718C54.4773 15.4836 54.6041 15.9517 54.3923 16.3173L54.2005 16.6482M52.8672 15.8811L54.2005 16.6482M55.9948 20.8835L55.6621 21.0742C55.2945 21.2849 55.1692 21.7526 55.3822 22.1189C55.5951 22.4851 56.0657 22.6112 56.4333 22.4005L56.766 22.2097M55.9948 20.8835L56.3276 20.6927C56.6951 20.482 57.1657 20.6081 57.3787 20.9744C57.5916 21.3406 57.4663 21.8083 57.0988 22.019L56.766 22.2097M55.9948 20.8835L56.766 22.2097M34.231 13.6516C32.638 13.6491 31.3447 12.3627 31.3423 10.7782L31.3408 9.82193C31.3384 8.23748 32.6277 6.95501 34.2206 6.95746C35.8135 6.9599 37.1068 8.24633 37.1093 9.83078L37.1108 10.7871C37.1132 12.3715 35.8239 13.654 34.231 13.6516ZM46.9892 34.3775L50.2429 29.2612C52.7733 25.2824 51.1114 19.985 46.7498 18.1264L42.29 16.2259C37.6443 14.2461 32.8811 18.7306 34.6144 23.4523L37.3567 30.9228C37.8133 32.1665 37.5083 33.5585 36.5736 34.4965L34.7018 36.3751C31.3629 39.7259 32.9201 45.4256 37.5105 46.6556C40.98 47.5852 44.5048 45.3941 45.1793 41.8884L46.2817 36.1576C46.4034 35.5251 46.6434 34.9213 46.9892 34.3775Z" stroke="#28BBA5" stroke-width="2.002" stroke-linecap="round" stroke-linejoin="round"/>
</g>
<path d="M110.983 22V3.65167H114.991V11.2513H117.75L117.047 11.6937L122.2 3.65167H126.625L120.717 12.4745L119.129 11.3814C120.361 11.5896 121.376 12.0147 122.174 12.6567C122.99 13.2986 123.692 14.2095 124.282 15.3894L127.587 22H123.215L120.743 16.7948C120.361 15.962 119.892 15.3807 119.337 15.0511C118.782 14.704 118.071 14.5305 117.203 14.5305H114.991V22H110.983ZM126.97 22L135.402 3.65167H138.76L147.296 22H143.184L140.972 16.8989L142.559 18.018H131.654L133.268 16.8989L131.056 22H126.97ZM137.068 7.91993L133.71 15.8839L133.008 14.8949H141.206L140.607 15.8839L137.172 7.91993H137.068ZM148.878 22V3.65167H162.412V6.74876H152.73V11.0691H157.805C159.835 11.0691 161.423 11.5375 162.568 12.4745C163.713 13.3941 164.286 14.7387 164.286 16.5085C164.286 18.2783 163.713 19.6403 162.568 20.5946C161.423 21.5315 159.835 22 157.805 22H148.878ZM152.73 18.9289H157.285C158.378 18.9289 159.176 18.7294 159.679 18.3303C160.182 17.9313 160.434 17.324 160.434 16.5085C160.434 15.7104 160.182 15.1205 159.679 14.7387C159.176 14.3397 158.378 14.1401 157.285 14.1401H152.73V18.9289ZM167 22V3.65167H170.748V16.4044H170.097L180.039 3.65167H183.058V22H179.284V9.24726H179.935L169.967 22H167ZM186.773 22V3.65167H190.834V11.017H199.24V3.65167H203.326V22H199.24V14.3744H190.834V22H186.773ZM207.055 22V3.65167H219.808V6.80081H210.933V11.0951H219.184V14.2703H210.933V18.8509H219.808V22H207.055ZM226.878 22V6.95697H221.048V3.65167H236.768V6.95697H230.938V22H226.878ZM110.436 42.8128C110.436 40.9042 110.792 39.2473 111.503 37.8419C112.232 36.4191 113.273 35.3173 114.627 34.5366C115.98 33.7558 117.585 33.3654 119.441 33.3654C121.298 33.3654 122.903 33.7558 124.256 34.5366C125.609 35.3173 126.651 36.4191 127.379 37.8419C128.125 39.2473 128.498 40.8956 128.498 42.7868C128.498 44.7127 128.125 46.3871 127.379 47.8098C126.651 49.2152 125.609 50.317 124.256 51.1151C122.903 51.8959 121.298 52.2863 119.441 52.2863C117.585 52.2863 115.98 51.8959 114.627 51.1151C113.291 50.317 112.258 49.2065 111.529 47.7838C110.801 46.361 110.436 44.704 110.436 42.8128ZM114.679 42.8128C114.679 44.704 115.069 46.1875 115.85 47.2633C116.648 48.3217 117.845 48.8509 119.441 48.8509C121.003 48.8509 122.191 48.3217 123.007 47.2633C123.822 46.1875 124.23 44.704 124.23 42.8128C124.23 40.9042 123.822 39.4294 123.007 38.3884C122.209 37.33 121.02 36.8008 119.441 36.8008C117.845 36.8008 116.648 37.33 115.85 38.3884C115.069 39.4294 114.679 40.9042 114.679 42.8128ZM131.672 52V33.6517H140.234C142.299 33.6517 143.86 34.1548 144.919 35.1612C145.994 36.1502 146.532 37.5122 146.532 39.2473C146.532 40.965 145.994 42.3357 144.919 43.3594C143.86 44.3657 142.299 44.8689 140.234 44.8689H135.732V52H131.672ZM135.732 41.7197H139.714C140.685 41.7197 141.405 41.5028 141.874 41.0691C142.36 40.6353 142.602 40.028 142.602 39.2473C142.602 38.4665 142.36 37.8679 141.874 37.4515C141.405 37.0177 140.685 36.8008 139.714 36.8008H135.732V41.7197ZM153.044 52V36.957H147.214V33.6517H162.934V36.957H157.104V52H153.044ZM163.683 42.8128C163.683 40.9042 164.039 39.2473 164.75 37.8419C165.479 36.4191 166.52 35.3173 167.873 34.5366C169.226 33.7558 170.831 33.3654 172.688 33.3654C174.544 33.3654 176.149 33.7558 177.503 34.5366C178.856 35.3173 179.897 36.4191 180.626 37.8419C181.372 39.2473 181.745 40.8956 181.745 42.7868C181.745 44.7127 181.372 46.3871 180.626 47.8098C179.897 49.2152 178.856 50.317 177.503 51.1151C176.149 51.8959 174.544 52.2863 172.688 52.2863C170.831 52.2863 169.226 51.8959 167.873 51.1151C166.537 50.317 165.505 49.2065 164.776 47.7838C164.047 46.361 163.683 44.704 163.683 42.8128ZM167.925 42.8128C167.925 44.704 168.316 46.1875 169.096 47.2633C169.894 48.3217 171.092 48.8509 172.688 48.8509C174.249 48.8509 175.438 48.3217 176.253 47.2633C177.069 46.1875 177.477 44.704 177.477 42.8128C177.477 40.9042 177.069 39.4294 176.253 38.3884C175.455 37.33 174.267 36.8008 172.688 36.8008C171.092 36.8008 169.894 37.33 169.096 38.3884C168.316 39.4294 167.925 40.9042 167.925 42.8128ZM184.918 52V33.6517H201.393V52H197.359V36.9309H188.926V52H184.918ZM205.124 52V33.6517H217.877V36.8008H209.002V41.0951H217.252V44.2703H209.002V48.8509H217.877V52H205.124ZM219.142 56.4244V48.8769H221.068C221.884 47.8879 222.491 46.5345 222.89 44.8168C223.289 43.0818 223.489 40.9736 223.489 38.4925V33.6517H237.256V48.8769H239.937V56.4244H236.424V52H222.682V56.4244H219.142ZM225.076 48.8769H233.222V36.7488H227.184V38.8829C227.184 41.2252 227.011 43.2119 226.664 44.8428C226.317 46.4738 225.788 47.8185 225.076 48.8769ZM240.224 52L248.656 33.6517H252.013L260.55 52H256.438L254.226 46.8989L255.813 48.018H244.908L246.522 46.8989L244.31 52H240.224ZM250.322 37.9199L246.964 45.8839L246.262 44.8949H254.46L253.861 45.8839L250.426 37.9199H250.322Z" fill="#F0F5FF"/>
<defs>
<clipPath id="clip0_338_6">
<rect width="85.085" height="59.059" fill="white" transform="translate(0 -0.000389099)"/>
</clipPath>
</defs>
</svg>
