<svg width="44" height="44" viewBox="0 0 44 44" fill="none" xmlns="http://www.w3.org/2000/svg">
<path d="M18.3333 22C18.3333 22.9725 18.7196 23.9051 19.4073 24.5928C20.0949 25.2804 21.0275 25.6667 22 25.6667C22.9725 25.6667 23.9051 25.2804 24.5927 24.5928C25.2804 23.9051 25.6667 22.9725 25.6667 22C25.6667 21.0276 25.2804 20.0949 24.5927 19.4073C23.9051 18.7197 22.9725 18.3334 22 18.3334C21.0275 18.3334 20.0949 18.7197 19.4073 19.4073C18.7196 20.0949 18.3333 21.0276 18.3333 22Z" stroke="#F0F5FF" stroke-width="3" stroke-linecap="round" stroke-linejoin="round"/>
<path d="M27.5 27.5H28.4167C33.9863 27.5 38.5 25.0378 38.5 22C38.5 18.9622 33.9863 16.5 28.4167 16.5C25.0507 16.5 22.0697 17.3983 20.24 18.7825" stroke="#F0F5FF" stroke-width="3" stroke-linecap="round" stroke-linejoin="round"/>
<path d="M16.5 16.5H15.5833C10.0137 16.5 5.5 18.9622 5.5 22C5.5 25.0378 10.0137 27.5 15.5833 27.5C18.964 27.5 21.956 26.5925 23.7857 25.1992" stroke="#F0F5FF" stroke-width="3" stroke-linecap="round" stroke-linejoin="round"/>
<path d="M27.5 16.5V15.5833C27.5 10.0137 25.0378 5.5 22 5.5C18.9622 5.5 16.5 10.0137 16.5 15.5833C16.5 18.9438 17.3983 21.9212 18.7752 23.7527" stroke="#F0F5FF" stroke-width="3" stroke-linecap="round" stroke-linejoin="round"/>
<path d="M16.5 27.5V28.4167C16.5 33.9863 18.9622 38.5 22 38.5C25.0378 38.5 27.5 33.9863 27.5 28.4167C27.5 25.0397 26.5943 22.0513 25.2047 20.2217" stroke="#F0F5FF" stroke-width="3" stroke-linecap="round" stroke-linejoin="round"/>
</svg>
