<svg width="48" height="46" viewBox="0 0 48 46" fill="none" xmlns="http://www.w3.org/2000/svg">
<path d="M22.8767 0.928665C23.3781 0.067718 24.6219 0.0677173 25.1233 0.928665L32.117 12.936C32.3007 13.2514 32.6085 13.4751 32.9652 13.5523L46.5461 16.4932C47.5198 16.704 47.9042 17.887 47.2403 18.6299L37.9818 28.9918C37.7386 29.2639 37.6211 29.6258 37.6578 29.9889L39.0576 43.8138C39.1579 44.8051 38.1517 45.5362 37.24 45.1344L24.5242 39.531C24.1902 39.3838 23.8098 39.3838 23.4758 39.531L10.76 45.1344C9.84829 45.5362 8.84205 44.8051 8.94242 43.8138L10.3422 29.9889C10.379 29.6258 10.2614 29.2639 10.0182 28.9918L0.759669 18.6299C0.0958178 17.887 0.480165 16.704 1.45393 16.4932L15.0348 13.5523C15.3915 13.4751 15.6993 13.2514 15.883 12.936L22.8767 0.928665Z" fill="#FFC756"/>
</svg>
