<svg width="28" height="28" viewBox="0 0 28 28" fill="none" xmlns="http://www.w3.org/2000/svg">
<path fill-rule="evenodd" clip-rule="evenodd" d="M14 0C6.26828 0 0 6.26828 0 14C0 21.7317 6.26828 28 14 28C21.7317 28 28 21.7317 28 14C28 6.26828 21.7317 0 14 0ZM20.4892 9.52109C20.2787 11.7348 19.367 17.1068 18.9033 19.5863C18.707 20.6358 18.3203 20.9874 17.9463 21.0219C17.1336 21.0968 16.5162 20.4843 15.7287 19.968C14.4966 19.1603 13.8004 18.6577 12.6044 17.8697C11.2219 16.9586 12.1182 16.4582 12.9057 15.6401C13.1119 15.4257 16.6939 12.1674 16.7634 11.8721C16.7721 11.8349 16.7803 11.6971 16.6983 11.6244C16.6162 11.5516 16.4954 11.5768 16.4084 11.5965C16.2848 11.6244 14.3161 12.9254 10.5033 15.4995C9.94438 15.8834 9.43852 16.0699 8.98461 16.0606C8.48477 16.0497 7.52336 15.7779 6.80859 15.5455C5.93195 15.2605 5.23523 15.1096 5.29594 14.6256C5.32711 14.3735 5.67438 14.1159 6.33719 13.8523C10.4185 12.0739 13.1398 10.902 14.5015 10.3354C18.3897 8.71834 19.1975 8.43719 19.7241 8.42789C20.3837 8.41624 20.5429 8.96071 20.4892 9.52109Z" fill="#F0F5FF"/>
</svg>
