<svg width="46" height="37" viewBox="0 0 46 37" fill="none" xmlns="http://www.w3.org/2000/svg">
<path fill-rule="evenodd" clip-rule="evenodd" d="M9.95705 33.8644C9.38163 34.852 8.89395 35.8974 8.49272 37H0L7.88568 12.4971H0.690674L2.30235 7.58558C3.91407 7.54975 5.41955 7.41329 6.82078 7.17627C8.22108 6.94007 9.51619 6.53074 10.7061 5.94839C11.8951 5.36685 12.9797 4.59344 13.9582 3.62911C14.9367 2.66552 15.7903 1.45558 16.5197 0H27.2802C26.6546 0.310427 26.04 0.645742 25.4395 1.01307C23.4355 2.23886 21.6466 3.80174 20.0739 5.70173C18.5002 7.60171 17.2831 9.83886 16.4215 12.413H27.605C27.7344 11.2695 28.0788 10.2372 28.6394 9.3178C29.199 8.39848 29.8889 7.61225 30.708 6.95815C31.5262 6.30507 32.41 5.80417 33.3584 5.45654C34.306 5.10992 35.2332 4.9356 36.1382 4.9356C37.7321 4.9356 38.8421 5.36462 39.4673 6.22266C40.0916 7.08077 40.1674 8.22517 39.6937 9.6549C39.2624 10.9631 38.4866 12.209 37.3664 13.3936C36.2453 14.5792 34.92 15.7227 33.3907 16.8259C31.8605 17.929 30.1908 18.992 28.3808 20.0129C26.5707 21.0347 24.7707 22.0565 22.9829 23.0773C21.1941 24.0992 19.4921 25.121 17.876 26.1418C16.2599 27.1637 14.87 28.2257 13.7064 29.329C12.1115 30.7999 10.8621 32.3121 9.95705 33.8644ZM42.8369 20.0786C43.9775 19.1092 45.0307 18.0824 46 17L41.5139 32H26C26.4545 31.328 27.2811 30.5918 28.4806 29.7925C29.6792 28.9942 31.0746 28.1002 32.6666 27.1117C34.2576 26.1241 35.9426 25.0518 37.7207 23.8948C39.4978 22.7387 41.2032 21.4663 42.8369 20.0786Z" fill="#5A6170"/>
</svg>
