<svg width="44" height="44" viewBox="0 0 44 44" fill="none" xmlns="http://www.w3.org/2000/svg">
<path d="M11.7993 14.6666C11.2653 16.2792 10.9954 17.9674 11 19.6661C11 27.0306 15.9243 33 22 33C28.0757 33 33 27.0306 33 19.6661C33.0046 17.9674 32.7347 16.2792 32.2007 14.6666" stroke="#F0F5FF" stroke-width="3" stroke-linecap="round" stroke-linejoin="round"/>
<path d="M26.5834 38.5C26.5834 38.5 25.333 33 22 33C18.667 33 17.4167 38.5 17.4167 38.5" stroke="#F0F5FF" stroke-width="3" stroke-linecap="round" stroke-linejoin="round"/>
<path d="M33.9533 9.58833C34.4887 12.6427 32.0833 14.6667 32.0833 14.6667C32.0833 14.6667 29.1445 13.6345 28.6092 10.5783C28.0738 7.524 30.4792 5.5 30.4792 5.5C30.4792 5.5 33.418 6.53217 33.9533 9.58833Z" stroke="#F0F5FF" stroke-width="3" stroke-linecap="round" stroke-linejoin="round"/>
<path d="M38.6724 22.2567C36.3239 24.5777 33.143 23.65 33.143 23.65C33.143 23.65 32.3107 20.4013 34.661 18.0767C37.0077 15.7557 40.1904 16.6833 40.1904 16.6833C40.1904 16.6833 41.0227 19.932 38.6724 22.2567Z" stroke="#F0F5FF" stroke-width="3" stroke-linecap="round" stroke-linejoin="round"/>
<path d="M32.5123 34.5144C29.7623 33.4602 29.3333 30.4994 29.3333 30.4994C29.3333 30.4994 31.6561 28.5964 34.4061 29.6524C37.1561 30.7065 37.5833 33.6674 37.5833 33.6674C37.5833 33.6674 35.2623 35.5704 32.5123 34.5144Z" stroke="#F0F5FF" stroke-width="3" stroke-linecap="round" stroke-linejoin="round"/>
<path d="M11.4895 34.5144C14.2395 33.4602 14.6667 30.4994 14.6667 30.4994C14.6667 30.4994 12.3439 28.5964 9.59385 29.6524C6.84385 30.7065 6.41669 33.6674 6.41669 33.6674C6.41669 33.6674 8.73952 35.5704 11.4895 34.5144Z" stroke="#F0F5FF" stroke-width="3" stroke-linecap="round" stroke-linejoin="round"/>
<path d="M5.32765 22.2567C7.67615 24.5777 10.857 23.65 10.857 23.65C10.857 23.65 11.6893 20.4013 9.33898 18.0767C6.99048 15.7575 3.80965 16.6833 3.80965 16.6833C3.80965 16.6833 2.97731 19.932 5.32765 22.2567Z" stroke="#F0F5FF" stroke-width="3" stroke-linecap="round" stroke-linejoin="round"/>
<path d="M10.0467 9.58833C9.51133 12.6427 11.9167 14.6667 11.9167 14.6667C11.9167 14.6667 14.8555 13.6345 15.3908 10.5783C15.9262 7.524 13.5208 5.5 13.5208 5.5C13.5208 5.5 10.582 6.53217 10.0467 9.58833Z" stroke="#F0F5FF" stroke-width="3" stroke-linecap="round" stroke-linejoin="round"/>
</svg>
